<?xml version="1.0" standalone="no"?><!DOCTYPE svg PUBLIC "-//W3C//DTD SVG 1.1//EN" "http://www.w3.org/Graphics/SVG/1.1/DTD/svg11.dtd"><svg t="1706089677647" class="icon" viewBox="0 0 1024 1024" version="1.1" xmlns="http://www.w3.org/2000/svg" p-id="4708" xmlns:xlink="http://www.w3.org/1999/xlink" width="64" height="64"><path d="M0 0h1024v1024H0z" opacity=".01" p-id="4709"></path><path d="M214.801067 214.801067a34.133333 34.133333 0 0 1 48.264533 0L512 463.735467l248.9344-248.9344a34.133333 34.133333 0 1 1 48.264533 48.264533L560.264533 512l248.9344 248.9344a34.133333 34.133333 0 0 1-48.264533 48.264533L512 560.264533l-248.9344 248.9344a34.133333 34.133333 0 0 1-48.264533-48.264533L463.735467 512 214.801067 263.0656a34.133333 34.133333 0 0 1 0-48.264533z" p-id="4710"></path></svg>