<?xml version="1.0" standalone="no"?><!DOCTYPE svg PUBLIC "-//W3C//DTD SVG 1.1//EN" "http://www.w3.org/Graphics/SVG/1.1/DTD/svg11.dtd"><svg t="1706088817408" class="icon" viewBox="0 0 1024 1024" version="1.1" xmlns="http://www.w3.org/2000/svg" p-id="3247" xmlns:xlink="http://www.w3.org/1999/xlink" width="64" height="64"><path d="M384 213.333333c0 46.933333-38.4 85.333333-85.333333 85.333334s-85.333333-38.4-85.333334-85.333334 38.4-85.333333 85.333334-85.333333 85.333333 38.4 85.333333 85.333333z m-85.333333 384c46.933333 0 85.333333-38.4 85.333333-85.333333s-38.4-85.333333-85.333333-85.333333-85.333333 38.4-85.333334 85.333333 38.4 85.333333 85.333334 85.333333z m0 298.666667c46.933333 0 85.333333-38.4 85.333333-85.333333s-38.4-85.333333-85.333333-85.333334-85.333333 38.4-85.333334 85.333334 38.4 85.333333 85.333334 85.333333zM768 213.333333c0 46.933333-38.4 85.333333-85.333333 85.333334s-85.333333-38.4-85.333334-85.333334 38.4-85.333333 85.333334-85.333333 85.333333 38.4 85.333333 85.333333z m-85.333333 384c46.933333 0 85.333333-38.4 85.333333-85.333333s-38.4-85.333333-85.333333-85.333333-85.333333 38.4-85.333334 85.333333 38.4 85.333333 85.333334 85.333333z m0 298.666667c46.933333 0 85.333333-38.4 85.333333-85.333333s-38.4-85.333333-85.333333-85.333334-85.333333 38.4-85.333334 85.333334 38.4 85.333333 85.333334 85.333333z" p-id="3248"></path><path d="M0 0h1024v1024H0z" fill-opacity="0" p-id="3249"></path></svg>