<?xml version="1.0" standalone="no"?><!DOCTYPE svg PUBLIC "-//W3C//DTD SVG 1.1//EN" "http://www.w3.org/Graphics/SVG/1.1/DTD/svg11.dtd"><svg t="1698992268949" class="icon" viewBox="0 0 1024 1024" version="1.1" xmlns="http://www.w3.org/2000/svg" p-id="27739" xmlns:xlink="http://www.w3.org/1999/xlink" width="200" height="200"><path d="M956.302 256H750.08c-5.973 0-10.524 6.258-10.524 14.222v56.89c0 7.964 4.835 14.221 10.524 14.221h206.222c5.974 0 10.525-6.257 10.525-14.222v-56.889c0.284-7.964-4.551-14.222-10.525-14.222zM883.77 784.498a267.378 267.378 0 0 0-77.369-64.57 787.911 787.911 0 0 0-180.622-77.652c-25.031-7.68-56.89-23.325-56.89-46.65a82.489 82.489 0 0 1 16.214-56.888 374.329 374.329 0 0 0 69.12-145.351 341.333 341.333 0 0 0 5.974-146.205 195.698 195.698 0 0 0-67.13-122.026 170.667 170.667 0 0 0-109.51-39.823 199.111 199.111 0 0 0-48.925 6.258 174.649 174.649 0 0 0-128.569 130.276 320 320 0 0 0 75.094 304.64l5.973 10.24a97.564 97.564 0 0 1-56.889 103.822c-28.444 10.24-58.596 21.333-87.324 33.564A568.889 568.889 0 0 0 115.2 746.098a137.956 137.956 0 0 0-54.898 68.55 196.836 196.836 0 0 0-3.413 46.934 74.24 74.24 0 0 0 23.893 51.77 124.302 124.302 0 0 0 24.462 16.781 56.889 56.889 0 0 0 30.152 8.534h686.933a56.889 56.889 0 0 0 37.547-14.223c19.91-17.35 48.924-47.786 46.08-76.515a43.804 43.804 0 0 1 0-7.111 91.876 91.876 0 0 0-22.187-56.32z m73.102-386.276H720.782c-5.404 0-9.955 6.258-9.955 14.222v56.89c0 7.964 4.55 14.222 9.955 14.222h236.09c5.404 0 9.955-6.258 9.955-14.223v-56.889c0.284-7.964-4.267-14.222-9.956-14.222z m0 142.222H808.96a13.084 13.084 0 0 0-11.378 14.223v56.889a13.084 13.084 0 0 0 11.378 14.222h147.911a13.084 13.084 0 0 0 11.378-14.222v-56.89a13.084 13.084 0 0 0-12.8-14.222z" fill="" p-id="27740"></path></svg>