<?xml version="1.0" standalone="no"?><!DOCTYPE svg PUBLIC "-//W3C//DTD SVG 1.1//EN" "http://www.w3.org/Graphics/SVG/1.1/DTD/svg11.dtd"><svg t="1698983638627" class="icon" viewBox="0 0 1042 1024" version="1.1" xmlns="http://www.w3.org/2000/svg" p-id="13749" xmlns:xlink="http://www.w3.org/1999/xlink" width="203.515625" height="200"><path d="M789.942857 479.085714V235.885714l95.085714 95.085715 51.2-51.2-157.257142-157.257143c-14.628571-14.628571-36.571429-14.628571-51.2 0l-157.257143 157.257143 51.2 51.2 95.085714-95.085715v245.028572c-102.4 18.285714-181.028571 107.885714-181.028571 215.771428 0 120.685714 98.742857 219.428571 219.428571 219.428572s219.428571-98.742857 219.428571-219.428572c0-109.714286-80.457143-201.142857-184.685714-217.6zM755.2 841.142857c-80.457143 0-146.285714-65.828571-146.285714-146.285714s65.828571-146.285714 146.285714-146.285714 146.285714 65.828571 146.285714 146.285714-65.828571 146.285714-146.285714 146.285714zM517.485714 329.142857c0-120.685714-98.742857-219.428571-219.428571-219.428571s-219.428571 98.742857-219.428572 219.428571c0 107.885714 78.628571 199.314286 182.857143 215.771429V658.285714h-164.571428v73.142857h164.571428v182.857143h73.142857V731.428571h164.571429v-73.142857h-164.571429v-113.371428c104.228571-16.457143 182.857143-106.057143 182.857143-215.771429z m-365.714285 0c0-80.457143 65.828571-146.285714 146.285714-146.285714s146.285714 65.828571 146.285714 146.285714-65.828571 146.285714-146.285714 146.285714-146.285714-64-146.285714-146.285714z" p-id="13750"></path></svg>